# xmcd
# 
# Track frame offsets:
#     150
#     6237
#     15255
#     22260
#     33562
#     50895
#     64150
#     70812
#     80067
#     87579
#     95607
#     103682
#     111972
#     118392
#     126755
#     135497
#     149710
#     159190
#     170362
# 
# Disc length: 2392
# 
# Revision: 13
# Processed by: cddbd v1.5.2PL0 Copyright (c) Steve Scherf et al.
# Submitted via: BonkEnc v1.0
# 
DISCID=14095613
DTITLE=Kinderchor - Kinderlieder 2
DYEAR=0
DGENRE=Other
TTITLE0=Fuchs du hast die Gans gestohlen
TTITLE1=Es klappert die Mühle am rauschenden Bach
TTITLE2=Auf unserer Wiese gehet was
TTITLE3=Rappel-Polka
TTITLE4=Grün Grün Grün sind alle meine Kleider
TTITLE5=Nehmt euch mehr Zeit für uns
TTITLE6=Alle Vöglein sind schon da
TTITLE7=Es tanzt ein Bi-Ba-Butzemann
TTITLE8=Schlaf Kindchen Schlaf
TTITLE9=Backe Backe Kuchen
TTITLE10=Ein neuer Morgen
TTITLE11=Hänschen klein
TTITLE12=Kuckuck ruft's aus dem Wald
TTITLE13=Ein Männlein steht im Walde
TTITLE14=Summ Summ Summ
TTITLE15=Leise kommt die Nacht
TTITLE16=Immer unterwegs
TTITLE17=Weißt du wieviel Sternlein stehen
TTITLE18=Unser Zuhaus ist der Chiemgauhof
EXTD=
EXTT0=
EXTT1=
EXTT2=
EXTT3=
EXTT4=
EXTT5=
EXTT6=
EXTT7=
EXTT8=
EXTT9=
EXTT10=
EXTT11=
EXTT12=
EXTT13=
EXTT14=
EXTT15=
EXTT16=
EXTT17=
EXTT18=
PLAYORDER=
